<?xml version="1.0" standalone="no"?>
<!DOCTYPE svg PUBLIC "-//W3C//DTD SVG 20010904//EN"
 "http://www.w3.org/TR/2001/REC-SVG-20010904/DTD/svg10.dtd">
<svg version="1.0" xmlns="http://www.w3.org/2000/svg"
 width="638.000000pt" height="638.000000pt" viewBox="0 0 638.000000 638.000000"
 preserveAspectRatio="xMidYMid meet">
<metadata>
Created by potrace 1.11, written by Peter Selinger 2001-2013
</metadata>
<g transform="translate(0.000000,638.000000) scale(0.100000,-0.100000)"
fill="#000000" stroke="none">
<path d="M3279 6376 c-2 -2 -39 -6 -82 -10 -618 -50 -1275 -322 -1743 -721
-13 -11 -42 -36 -65 -55 -125 -105 -307 -299 -437 -468 l-65 -83 24 -17 c13
-9 26 -17 29 -17 6 -1 187 -106 240 -140 19 -12 45 -25 58 -29 12 -4 22 -12
22 -17 0 -5 4 -9 10 -9 5 0 33 -14 62 -31 29 -18 67 -39 83 -49 17 -9 102 -59
190 -110 88 -51 178 -103 201 -116 22 -12 118 -68 213 -123 95 -56 175 -101
178 -101 4 0 14 -6 22 -14 9 -7 48 -30 86 -51 39 -21 86 -48 105 -60 19 -12
60 -35 90 -52 30 -16 65 -36 76 -43 20 -12 27 -9 85 44 145 131 371 252 529
282 14 3 41 9 60 14 100 26 342 30 455 6 279 -58 493 -175 678 -369 97 -103
227 -299 227 -343 0 -7 3 -14 8 -16 9 -4 52 -125 58 -164 l4 -29 -1475 0
c-1324 1 -1475 -1 -1479 -15 -19 -64 -30 -409 -15 -480 4 -19 10 -55 13 -80 7
-54 9 -66 31 -156 10 -38 20 -73 23 -79 4 -5 8 -19 9 -30 2 -11 7 -29 12 -40
5 -11 23 -56 40 -100 30 -76 141 -286 161 -305 3 -3 17 -21 30 -40 64 -93 155
-196 252 -285 93 -85 116 -104 122 -98 3 4 6 2 6 -4 0 -35 397 -249 515 -278
6 -1 17 -5 25 -8 8 -3 26 -8 40 -11 14 -4 50 -13 80 -21 30 -8 75 -18 100 -21
25 -3 54 -8 65 -10 112 -23 404 -22 530 1 202 38 336 81 505 162 107 52 117
55 140 41 14 -8 45 -25 70 -39 25 -13 47 -26 50 -30 3 -3 32 -20 65 -39 95
-53 128 -71 160 -91 17 -11 41 -25 55 -32 14 -7 44 -25 67 -40 24 -15 45 -27
48 -27 2 0 34 -18 70 -40 36 -22 69 -40 74 -40 5 0 11 -3 13 -7 2 -5 16 -15
32 -23 16 -8 31 -19 33 -25 3 -11 -158 -134 -271 -207 -85 -55 -257 -145 -384
-199 -48 -21 -235 -88 -262 -94 -8 -2 -51 -13 -96 -24 -45 -12 -92 -24 -105
-26 -13 -3 -49 -10 -79 -16 -30 -5 -73 -12 -95 -15 -22 -2 -74 -8 -115 -13
-75 -9 -474 -7 -540 3 -19 3 -51 8 -70 11 -19 2 -44 6 -55 9 -11 2 -40 7 -65
11 -130 20 -480 126 -517 157 -7 6 -13 8 -13 4 0 -3 -26 8 -59 24 -32 17 -61
30 -64 30 -5 0 -145 77 -197 109 -19 12 -43 24 -52 27 -10 4 -18 9 -18 13 0 3
-20 17 -45 31 -25 14 -45 28 -45 32 0 5 -4 8 -10 8 -5 0 -18 6 -27 14 -281
225 -387 334 -601 611 -4 6 -36 54 -70 109 -227 362 -358 761 -388 1181 -14
191 -4 501 16 555 1 3 2 9 1 14 -1 5 3 34 10 64 6 31 12 65 14 76 6 46 16 94
31 146 9 30 17 62 19 71 5 25 82 245 94 267 6 12 11 27 11 34 0 8 -46 41 -102
74 -57 32 -112 64 -123 71 -11 7 -26 15 -34 19 -8 4 -63 36 -123 71 -60 35
-114 63 -121 63 -7 0 -20 -21 -31 -48 -10 -26 -26 -65 -36 -87 -25 -55 -91
-245 -96 -275 -3 -14 -7 -32 -10 -40 -7 -18 -31 -109 -38 -142 -3 -12 -8 -34
-11 -48 -5 -24 -18 -89 -30 -155 -3 -16 -7 -48 -10 -70 -3 -22 -7 -49 -9 -61
-26 -135 -28 -616 -2 -764 2 -14 7 -47 10 -75 7 -57 13 -94 23 -145 4 -19 8
-42 9 -50 1 -8 12 -53 24 -100 12 -47 24 -98 27 -115 3 -16 10 -36 15 -43 6
-6 8 -12 5 -12 -6 0 43 -149 88 -265 60 -156 174 -379 283 -550 44 -69 171
-245 183 -255 3 -3 28 -32 55 -65 145 -178 352 -374 544 -516 93 -69 227 -159
236 -159 3 0 18 -8 32 -19 150 -106 576 -288 802 -341 157 -38 210 -50 240
-55 19 -3 49 -8 65 -11 49 -9 159 -23 235 -31 81 -9 495 -9 570 -1 36 4 86 10
111 12 25 3 59 7 75 10 16 3 44 8 62 11 17 3 47 7 65 10 17 3 48 10 67 15 19
5 49 12 67 15 87 15 394 114 501 161 277 123 484 243 692 400 52 39 106 81
120 93 114 100 142 125 190 173 120 119 240 257 317 361 59 82 65 69 -62 137
-44 23 -87 48 -95 54 -8 6 -24 16 -35 22 -69 38 -344 195 -473 270 -85 49
-170 98 -190 110 -21 11 -55 31 -77 44 -22 12 -60 34 -85 48 -25 13 -52 30
-60 38 -8 7 -19 14 -25 15 -5 1 -19 7 -30 14 -11 7 -96 56 -190 110 -170 98
-203 117 -272 156 -21 12 -43 25 -49 30 -12 9 -35 -6 -109 -74 -16 -15 -48
-40 -70 -55 -22 -15 -42 -30 -45 -33 -3 -3 -36 -24 -75 -46 -112 -62 -284
-126 -375 -137 -19 -3 -35 -5 -35 -6 0 -14 -266 -20 -345 -8 -36 5 -72 11 -80
12 -43 6 -97 20 -111 27 -9 4 -27 10 -40 13 -70 15 -209 82 -314 151 -219 146
-395 380 -479 639 -14 43 -26 80 -26 82 0 2 666 4 1479 4 l1479 0 10 73 c23
179 8 460 -35 632 -9 39 -18 72 -18 75 -28 129 -119 330 -222 488 -62 97 -53
85 -140 187 -71 84 -88 102 -169 175 -91 82 -285 220 -310 220 -7 0 -14 3 -16
8 -1 4 -32 21 -68 39 -313 150 -606 205 -946 179 -51 -4 -102 -9 -115 -12 -13
-3 -37 -7 -54 -9 -37 -5 -156 -33 -195 -47 -172 -61 -233 -86 -302 -122 l-83
-43 -50 32 c-27 18 -70 43 -95 57 -25 14 -61 34 -80 45 -19 11 -62 36 -95 55
-33 19 -121 70 -195 113 -74 42 -161 93 -193 112 l-58 35 38 30 c21 16 40 33
43 36 3 4 25 21 50 37 43 29 50 34 84 63 8 6 18 12 20 12 3 0 29 15 58 34 179
113 427 226 623 282 96 28 190 52 230 59 17 2 41 7 55 10 13 2 42 7 65 10 22
4 51 8 65 10 111 18 455 25 570 11 30 -3 75 -8 100 -11 60 -7 204 -33 260 -46
97 -25 224 -62 265 -79 11 -4 58 -23 105 -40 107 -41 187 -78 223 -102 15 -11
27 -17 27 -14 0 3 29 -12 65 -34 36 -22 70 -40 75 -40 6 0 10 -4 10 -10 0 -5
7 -10 15 -10 8 0 15 -4 15 -10 0 -5 6 -10 13 -10 6 0 36 -18 65 -40 29 -22 55
-40 57 -40 3 0 15 -9 27 -19 13 -11 43 -35 67 -54 44 -35 44 -35 75 -17 118
66 447 257 474 274 l32 21 -59 55 c-63 59 -69 63 -146 125 -27 22 -52 42 -55
45 -3 3 -21 17 -40 30 -19 13 -41 30 -48 37 -7 7 -17 13 -22 13 -5 0 -15 6
-22 13 -16 15 -140 96 -188 123 -19 10 -37 22 -40 25 -12 14 -296 151 -402
193 -111 45 -347 120 -408 131 -16 3 -41 10 -56 15 -15 6 -29 8 -31 6 -3 -3
-16 -1 -30 5 -13 5 -39 11 -56 13 -18 3 -43 7 -57 10 -33 8 -97 17 -145 22
-22 2 -60 7 -85 10 -51 6 -516 15 -521 10z"/>
</g>
</svg>
