<?xml version="1.0" standalone="no"?>
<!DOCTYPE svg PUBLIC "-//W3C//DTD SVG 20010904//EN"
 "http://www.w3.org/TR/2001/REC-SVG-20010904/DTD/svg10.dtd">
<svg version="1.0" xmlns="http://www.w3.org/2000/svg"
 width="16.000000pt" height="16.000000pt" viewBox="0 0 16.000000 16.000000"
 preserveAspectRatio="xMidYMid meet">
<metadata>
Created by potrace 1.11, written by Peter Selinger 2001-2013
</metadata>
<g transform="translate(0.000000,16.000000) scale(0.006154,-0.006154)"
fill="#000000" stroke="none">
<path d="M1131 2568 c-30 -75 -300 -772 -336 -868 -24 -63 -71 -187 -105 -275
-33 -88 -65 -169 -70 -180 -9 -18 -234 -602 -286 -740 -12 -33 -61 -159 -108
-280 l-85 -220 176 -3 c97 -1 180 1 184 5 4 5 49 118 99 253 136 364 266 709
320 850 26 69 73 193 105 275 31 83 60 159 65 170 5 11 53 136 106 278 59 156
101 252 105 244 7 -11 92 -234 174 -452 12 -33 89 -235 170 -450 81 -214 160
-424 175 -465 76 -207 133 -358 145 -385 7 -16 36 -95 65 -173 29 -79 58 -146
64 -148 7 -3 91 -3 188 -2 l176 3 -84 220 c-47 121 -91 236 -98 255 -7 19 -63
163 -124 320 -60 157 -237 614 -392 1015 -155 402 -286 740 -291 753 -8 22
-12 22 -169 22 -157 0 -161 0 -169 -22z"/>
</g>
</svg>
