<?xml version="1.0" standalone="no"?>
<!DOCTYPE svg PUBLIC "-//W3C//DTD SVG 20010904//EN"
 "http://www.w3.org/TR/2001/REC-SVG-20010904/DTD/svg10.dtd">
<svg version="1.0" xmlns="http://www.w3.org/2000/svg"
 width="16.000000pt" height="16.000000pt" viewBox="0 0 16.000000 16.000000"
 preserveAspectRatio="xMidYMid meet">
<metadata>
Created by potrace 1.11, written by Peter Selinger 2001-2013
</metadata>
<g transform="translate(0.000000,16.000000) scale(0.002286,-0.002286)"
fill="#000000" stroke="none">
<path d="M3201 6845 c-4 -5 -45 -109 -91 -230 -45 -121 -97 -258 -115 -305
-18 -47 -88 -231 -155 -410 -66 -179 -125 -334 -131 -345 -5 -11 -45 -117 -89
-235 -44 -118 -84 -224 -89 -235 -9 -21 -17 -42 -161 -425 -50 -135 -96 -254
-101 -265 -5 -11 -45 -117 -89 -235 -44 -118 -85 -224 -89 -235 -5 -11 -25
-63 -44 -115 -51 -136 -147 -391 -156 -415 -29 -70 -50 -124 -127 -330 -47
-126 -94 -250 -103 -275 -27 -66 -49 -126 -161 -425 -56 -148 -105 -279 -110
-290 -9 -19 -47 -121 -125 -330 -21 -55 -44 -113 -51 -130 -7 -16 -60 -156
-118 -310 -57 -154 -153 -406 -212 -560 -58 -154 -119 -316 -135 -360 -16 -44
-33 -89 -38 -100 -18 -40 -51 -128 -51 -136 0 -5 173 -8 385 -8 363 0 385 1
395 18 5 10 43 110 84 222 75 205 237 642 303 819 20 52 42 113 50 135 17 49
150 408 210 568 24 65 78 211 119 325 98 270 362 978 378 1017 7 17 18 44 24
60 35 97 438 1173 462 1235 16 41 56 149 90 240 33 91 63 172 67 180 3 8 7 20
9 25 4 14 131 352 148 395 8 19 28 71 44 115 16 44 33 89 37 100 5 11 9 22 9
25 1 4 36 97 68 183 6 15 13 27 17 27 5 0 72 -175 303 -800 44 -118 106 -285
138 -370 32 -85 88 -236 125 -335 36 -99 72 -196 80 -215 8 -19 44 -116 80
-215 36 -99 81 -220 100 -270 38 -100 123 -329 166 -445 15 -41 77 -210 139
-375 122 -326 164 -440 205 -555 15 -41 40 -109 55 -150 38 -102 110 -297 126
-340 7 -19 141 -384 299 -810 158 -426 289 -783 292 -792 5 -17 34 -18 408
-17 l403 0 -8 27 c-4 15 -56 153 -115 307 -104 274 -260 685 -355 935 -79 208
-271 716 -400 1055 -67 176 -135 354 -150 395 -33 88 -36 97 -210 555 -72 193
-140 370 -150 395 -22 57 -22 58 -250 660 -106 278 -209 550 -230 605 -21 55
-84 222 -140 370 -55 149 -105 279 -110 290 -5 11 -48 124 -95 250 -48 127
-95 253 -106 280 -11 28 -66 171 -122 320 l-102 270 -363 0 c-234 0 -366 -3
-371 -10z"/>
</g>
</svg>
