<svg width="232" height="256" viewBox="0 0 232 256" fill="none" xmlns="http://www.w3.org/2000/svg">
<path d="M232 202.084C227.216 208.874 222.034 214.864 216.055 220.456C192.935 242.421 161.842 256 127.56 256C93.2783 256 62.1856 242.421 39.0653 220.456C33.0859 214.864 27.9038 208.874 23.1203 202.084C18.3368 195.694 14.3505 188.905 11.1615 181.317C9.16838 175.725 6.77663 170.134 5.18213 163.744C4.7835 162.147 4.38488 160.15 3.58763 158.552C1.99313 152.562 1.19588 146.172 0.398625 139.782C0 135.788 0 131.794 0 127.8C0 123.807 0 119.813 0.398625 115.819C0.797251 109.429 1.99313 103.438 3.58763 97.0484C3.98625 95.8502 4.38488 93.8534 5.18213 92.2559C6.77663 86.2652 9.16838 80.2746 11.5601 74.6833L32.2887 86.6646C31.4914 88.6615 30.6942 90.259 29.8969 92.2559C27.9038 97.8471 26.3093 103.838 25.1134 110.228C24.7148 112.225 24.3162 114.222 24.3162 116.218C23.9175 120.212 23.5189 124.206 23.5189 128.2C23.5189 132.193 23.9175 136.187 24.3162 140.181C24.7148 142.178 24.7148 144.175 25.1134 146.172C26.3093 152.162 27.9038 158.153 29.8969 164.144C30.6942 166.14 31.4914 168.137 32.2887 169.735C35.4777 176.924 39.4639 184.112 44.2474 190.502C49.0309 196.892 54.6117 203.282 60.9897 208.474C78.9278 223.651 102.447 232.836 127.959 232.836C153.471 232.836 176.591 223.651 194.928 208.474L163.835 190.502C153.471 196.493 141.113 200.087 127.959 200.087C114.804 200.087 102.845 196.493 92.0825 190.502C84.5086 186.109 78.1306 180.518 72.9484 174.128C70.5567 170.933 68.1649 167.738 66.1718 164.144C64.1787 160.549 62.5842 156.955 60.9897 153.36C59.3952 149.367 58.1993 144.973 57.4021 140.181C56.6048 136.187 56.6048 132.193 56.6048 128.2C56.6048 124.206 57.0034 120.212 57.4021 116.218H176.192C176.192 115.42 175.794 115.02 175.794 114.222C173.402 106.234 169.416 99.4446 163.835 93.454C163.436 93.0546 163.038 92.6552 162.241 92.2559C156.261 86.2652 148.289 81.8721 139.918 79.8752C135.931 79.0764 132.344 78.2777 127.959 78.2777C123.973 78.2777 119.986 78.6771 116 79.8752C107.23 81.8721 99.6564 86.2652 93.677 92.2559C93.2783 92.6552 92.8797 93.0546 92.0825 93.454L89.6907 92.2559L72.5498 82.2715L44.2474 65.897L23.5189 53.9158C28.3024 47.1264 33.4845 41.1357 39.4639 35.5445C62.1856 13.5788 93.677 0 127.959 0C162.241 0 193.333 13.5788 216.454 35.5445L194.529 47.9251C176.591 32.7488 153.072 23.5632 127.56 23.5632C102.048 23.5632 78.9278 32.7488 60.5911 47.9251L91.6838 65.897C102.048 59.9064 114.405 56.312 127.56 56.312C140.715 56.312 153.072 59.9064 163.436 65.897C170.612 70.2902 177.388 75.8814 182.57 82.2715C184.962 85.4665 187.354 88.6615 189.347 92.2559C191.34 95.8502 192.935 99.4446 194.529 103.039C196.124 107.432 197.32 111.426 198.117 116.218C198.914 120.212 198.914 124.206 198.914 128.2C198.914 132.193 198.515 136.187 198.117 140.181H79.7251C79.7251 140.98 80.1237 141.379 80.1237 142.178C82.5155 150.165 86.5017 156.955 92.0825 162.546L93.677 164.144C99.6564 170.134 107.629 174.527 116 176.524C119.588 177.323 123.574 178.122 127.959 178.122C131.945 178.122 135.931 177.722 139.918 176.524C148.687 174.527 156.261 170.134 162.241 164.144L163.835 162.546L166.227 164.144L183.368 174.128L211.67 190.502L232 202.084Z" fill="#00D59F"/>
</svg>
