<svg version="1.1" id="logo-eder-christian" xmlns="http://www.w3.org/2000/svg" x="0" y="0" viewBox="0 0 393.6 64.1" xml:space="preserve"><style>.st1{fill:#fff}</style><path d="M58.2 50.6c-1.2 1.7-2.5 3.2-4 4.6-5.8 5.5-13.6 8.9-22.2 8.9s-16.4-3.4-22.2-8.9c-1.5-1.4-2.8-2.9-4-4.6-1.2-1.6-2.2-3.3-3-5.2-.5-1.4-1.1-2.8-1.5-4.4-.1-.4-.2-.9-.4-1.3C.5 38.2.3 36.6.1 35 0 34 0 33 0 32s0-2 .1-3c.1-1.6.4-3.1.8-4.7.1-.3.2-.8.4-1.2.4-1.5 1-3 1.6-4.4l5.2 3c-.2.5-.4.9-.6 1.4-.5 1.4-.9 2.9-1.2 4.5-.1.5-.2 1-.2 1.5-.1 1-.2 2-.2 3s.1 2 .2 3c.1.5.1 1 .2 1.5.3 1.5.7 3 1.2 4.5.2.5.4 1 .6 1.4.8 1.8 1.8 3.6 3 5.2s2.6 3.2 4.2 4.5c4.5 3.8 10.4 6.1 16.8 6.1s12.2-2.3 16.8-6.1l-7.8-4.5c-2.6 1.5-5.7 2.4-9 2.4s-6.3-.9-9-2.4c-1.9-1.1-3.5-2.5-4.8-4.1-.6-.8-1.2-1.6-1.7-2.5-.5-.9-.9-1.8-1.3-2.7-.4-1-.7-2.1-.9-3.3-.2-1-.2-2-.2-3s.1-2 .2-3h29.8c0-.2-.1-.3-.1-.5-.6-2-1.6-3.7-3-5.2-.1-.1-.2-.2-.4-.3-1.5-1.5-3.5-2.6-5.6-3.1-1-.2-1.9-.4-3-.4-1 0-2 .1-3 .4-2.2.5-4.1 1.6-5.6 3.1-.1.1-.2.2-.4.3l-.6-.3-4.3-2.5-7.1-4.1-5.2-3c1.2-1.7 2.5-3.2 4-4.6C15.6 3.4 23.5 0 32.1 0s16.4 3.4 22.2 8.9L48.8 12C44.3 8.2 38.4 5.9 32 5.9S19.8 8.2 15.2 12l7.8 4.5c2.6-1.5 5.7-2.4 9-2.4s6.4.9 9 2.4c1.8 1.1 3.5 2.5 4.8 4.1.6.8 1.2 1.6 1.7 2.5.5.9.9 1.8 1.3 2.7.4 1.1.7 2.1.9 3.3.2 1 .2 2 .2 3s-.1 2-.2 3H20c0 .2.1.3.1.5.6 2 1.6 3.7 3 5.1l.4.4c1.5 1.5 3.5 2.6 5.6 3.1.9.2 1.9.4 3 .4 1 0 2-.1 3-.4 2.2-.5 4.1-1.6 5.6-3.1l.4-.4.6.4 4.3 2.5 7.1 4.1 5.1 2.9z" fill="#00d59f"/><path fill="#30284f" d="M83.1 34c.1 2 .8 3.6 2.4 4.9 1.5 1.3 3.3 1.9 5.3 1.9 3.3 0 5.7-1.4 7.1-4.1l4.3 2.8c-2.2 4.1-6.5 6.4-11.3 6.4-3.9.1-7.2-1.2-9.9-3.9-2.6-2.6-4-5.9-4-9.8 0-3.8 1.3-7 3.8-9.7 2.5-2.7 5.7-4 9.5-4 4 0 7.2 1.2 9.4 3.8 2.3 2.5 3.4 5.8 3.4 9.9 0 .8 0 1.4-.1 1.8H83.1zm.3-4.5h13.9c-.2-3.7-3.1-6-6.9-6-3.7 0-6.5 2.4-7 6zM111.2 23.1c2.4-2.8 5.6-4.2 9.5-4.2 1.4 0 3 .3 4.6 1.1 1.7.7 3 1.7 3.9 3.2V5.6h5.9v40.3h-5.7v-4.1c-.9 1.5-2.3 2.7-4.1 3.4-1.8.7-3.4 1.1-4.7 1.1-3.7 0-6.8-1.3-9.3-4.1-2.5-2.7-3.7-5.9-3.7-9.6-.1-3.6 1.1-6.8 3.6-9.5zm4.5 3.5c-1.4 1.6-2.2 3.6-2.2 5.9s.7 4.3 2.2 5.9c1.5 1.6 3.4 2.4 5.7 2.4s4.3-.8 5.7-2.4c1.5-1.6 2.2-3.6 2.2-5.9s-.7-4.3-2.2-5.9c-1.5-1.6-3.4-2.4-5.7-2.4s-4.2.8-5.7 2.4zM146.2 34c.1 2 .8 3.6 2.4 4.9 1.5 1.3 3.3 1.9 5.3 1.9 3.3 0 5.7-1.4 7.1-4.1l4.3 2.8C163 43.7 158.7 46 154 46c-3.9 0-7.2-1.3-9.9-3.9-2.6-2.6-4-5.9-4-9.8 0-3.8 1.3-7 3.8-9.7 2.5-2.7 5.7-4 9.5-4 4 0 7.2 1.2 9.4 3.8 2.3 2.5 3.4 5.8 3.4 9.9 0 .8 0 1.4-.1 1.8h-19.9zm.3-4.5h13.9c-.2-3.7-3.1-6-6.9-6-3.7 0-6.5 2.4-7 6zM185.7 25c-.5-.1-1-.1-1.7-.1-4.5 0-6.9 2.6-6.9 7.2v13.4h-5.9V19h5.7v4.2c1.6-3 4.1-4.5 7.3-4.5.6 0 1.1.1 1.4.1V25z"/><g><path fill="#30284f" d="M198.8 42c-2.6-2.6-4-5.9-4-9.8 0-3.7 1.3-6.9 4-9.6 2.6-2.7 5.9-4.1 9.8-4.1 5.9 0 10.3 3.2 11.9 7.9l-5 2.3c-1.1-3.2-3.4-4.8-6.8-4.8-2.2 0-4 .8-5.5 2.3-1.5 1.5-2.2 3.5-2.2 5.9 0 2.5.7 4.5 2.2 6.1 1.5 1.6 3.4 2.4 5.6 2.4 3.3 0 5.6-1.6 6.8-4.9l5.1 2.3c-.7 2.1-2.2 4-4.2 5.6-2 1.6-4.6 2.4-7.9 2.4-4-.1-7.2-1.4-9.8-4zM242.8 45.5V30.7c0-4-1.9-6.6-5.8-6.6-3.7 0-6.1 2.7-6.1 6.7v14.7H225V5.2h5.9v17.2c2-2.6 4.7-3.9 7.9-3.9 6.5 0 9.9 4.4 9.9 10.7v16.3h-5.9zM270.3 25c-.5-.1-1-.1-1.7-.1-4.5 0-6.9 2.6-6.9 7.2v13.4h-5.9V19h5.7v4.2c1.6-3 4.1-4.5 7.3-4.5.6 0 1.1.1 1.4.1V25zM274.2 7.8c1.5-1.6 3.9-1.6 5.4 0 1.5 1.5 1.5 3.9 0 5.4-1.5 1.5-3.9 1.5-5.4 0-1.5-1.5-1.5-3.9 0-5.4zm5.7 37.7H274V19h5.9v26.5zM284.2 39.3l4.6-2.6c1.4 2.8 3.5 4.3 6.3 4.3 2.2 0 4.2-1.1 4.2-2.9 0-1.5-1.8-2.7-5.4-3.5-2.9-.6-5.1-1.6-6.6-3.2-1.2-1.3-1.9-2.9-1.9-4.8 0-2.4.9-4.3 2.9-5.8 1.9-1.5 4.2-2.3 6.7-2.3 4.7 0 8.1 2 9.9 5.9l-4.6 2.6c-1.2-2.4-3-3.6-5.5-3.6-1.8 0-3.7 1.1-3.7 2.6 0 1.7 1.5 2.6 4.9 3.4 6 1.3 9.2 4.2 9.2 8.3 0 2.4-.9 4.4-2.8 5.9-1.8 1.5-4.3 2.3-7.2 2.3-5.3 0-9-2.2-11-6.6zM318.4 24.3V36c0 3.2 1.5 4.4 4.6 4.4.6 0 1.2-.1 1.9-.2v5c-.9.3-2 .5-3.2.5-5.8 0-9.2-3.1-9.2-8.8V24.3h-4.8V19h4.8v-8.2h5.9V19h6.5v5.3h-6.5zM330.6 7.8c1.5-1.6 3.9-1.6 5.4 0 1.5 1.5 1.5 3.9 0 5.4s-3.9 1.5-5.4 0c-1.6-1.5-1.6-3.9 0-5.4zm5.7 37.7h-5.9V19h5.9v26.5zM352.7 23.6c-3 0-5.2 1.4-6.6 4.2l-4.5-2.6c2.1-4.5 5.8-6.7 11.2-6.7 4.9 0 8.3 1.8 9.9 5.4.6 1.3.9 2.9.9 4.7v16.8h-5.8v-3.6c-1.6 2.7-4.2 4.1-7.8 4.1-2.6 0-4.7-.7-6.4-2.2-1.7-1.4-2.5-3.3-2.5-5.6v-.3c0-6.1 6.3-8.1 11-8.1h3.3c1.6 0 2.5-.7 2.5-2.2 0-2.1-1.9-3.9-5.2-3.9zm5.1 10.3h-5.7c-1.2 0-2.4.3-3.5 1-1 .6-1.6 1.5-1.6 2.7 0 2.2 1.7 3.6 4.2 3.6 4 0 6.6-2.5 6.6-6.4v-.9zM387.8 45.5V30.7c0-4-1.9-6.6-5.8-6.6-3.7 0-6.1 2.7-6.1 6.7v14.7H370V19h5.7v3.6c2-2.7 4.7-4.1 8.1-4.1 6.5 0 9.9 4.4 9.9 10.7v16.3h-5.9z"/></g></svg>