<svg version="1.1" id="logo-eder-christian" xmlns="http://www.w3.org/2000/svg" x="0" y="0" viewBox="0 0 299.9 56.8" xml:space="preserve"><style>.st0{fill:#00d59f}.st1{fill:#fff}</style><path class="st0" d="M44.4 42.9c-.9 1.3-1.9 2.4-3 3.5-4.4 4.2-10.4 6.8-17 6.8s-12.5-2.6-16.9-6.8c-1.1-1.1-2.1-2.2-3-3.5-.9-1.2-1.6-2.6-2.3-3.9-.5-1.1-.9-2.2-1.3-3.4-.1-.3-.2-.7-.3-1-.3-1.2-.5-2.3-.6-3.5v-2.4c0-.8 0-1.5.1-2.3.1-1.2.3-2.4.6-3.5.1-.3.2-.7.3-1 .3-1.2.8-2.3 1.3-3.4l3.9 2.3c-.2.4-.3.7-.4 1.1-.5 1.1-.8 2.2-1 3.4-.1.4-.1.8-.2 1.2-.1.7-.1 1.5-.1 2.3 0 .8 0 1.5.1 2.3 0 .4.1.8.2 1.2.2 1.2.5 2.3.9 3.4.1.4.3.7.4 1.1.6 1.4 1.4 2.7 2.3 3.9.9 1.3 2 2.4 3.2 3.4 3.5 2.9 7.9 4.6 12.8 4.6s9.3-1.7 12.8-4.6l-5.9-3.4c-2 1.2-4.4 1.8-6.9 1.8s-4.8-.7-6.9-1.8c-1.4-.8-2.7-1.9-3.7-3.1-.5-.6-.9-1.2-1.3-1.9s-.7-1.3-1-2.1c-.3-.8-.5-1.6-.7-2.5-.1-.7-.2-1.5-.2-2.3 0-.8.1-1.5.2-2.3h22.7c0-.1-.1-.2-.1-.3-.4-1.5-1.2-2.8-2.3-3.9l-.3-.3c-1.2-1.1-2.7-2-4.3-2.4-.7-.2-1.5-.3-2.3-.3-.8 0-1.5.1-2.3.3-1.6.4-3.1 1.2-4.3 2.4l-.3.3-.5-.3-2.9-2-5.4-3.1-3.9-2.3c.9-1.3 1.9-2.4 3-3.5C12 6.9 17.9 4.3 24.5 4.3c6.6 0 12.5 2.6 16.9 6.8l-4.1 2.4c-3.5-2.9-7.9-4.6-12.8-4.6s-9.3 1.7-12.8 4.6l5.9 3.4c2-1.2 4.4-1.8 6.9-1.8s4.8.7 6.9 1.8c1.4.8 2.7 1.9 3.7 3.1.5.6.9 1.2 1.3 1.9s.7 1.3 1 2.1c.3.8.5 1.6.7 2.5.1.7.2 1.5.2 2.3 0 .8-.1 1.5-.2 2.3H15.3c0 .1.1.2.1.3.4 1.5 1.2 2.8 2.3 3.9l.3.3c1.2 1.1 2.7 2 4.3 2.4.7.2 1.5.3 2.3.3.8 0 1.5-.1 2.3-.3 1.6-.4 3.1-1.2 4.3-2.4l.3-.3.5.3 3.3 1.9 5.4 3.1 3.7 2.3z"/><path class="st1" d="M63.3 21.9c0 1.5.6 2.8 1.8 3.8 1.2 1 2.5 1.5 4.1 1.5 2.5 0 4.3-1.1 5.4-3.1l3.2 2.1c-1.7 3.1-5 4.9-8.6 4.9-3 0-5.5-1-7.5-3s-3-4.5-3-7.5c0-2.9 1-5.4 2.9-7.4s4.3-3.1 7.2-3.1c3.1 0 5.5.9 7.2 2.9 1.7 1.9 2.6 4.4 2.6 7.5 0 .6 0 1.1-.1 1.4H63.3zm.2-3.4h10.6c-.2-2.8-2.4-4.6-5.2-4.6-2.8.1-5 1.9-5.4 4.6zM84.7 13.6c1.8-2.1 4.3-3.2 7.3-3.2 1.1 0 2.3.3 3.5.8 1.3.5 2.3 1.3 3 2.4V.3h4.5V31h-4.4v-3.1c-.7 1.2-1.7 2-3.1 2.6-1.4.6-2.6.8-3.6.8-2.8 0-5.2-1-7.1-3.1S82 23.7 82 20.9c-.1-2.7.9-5.2 2.7-7.3zm3.5 2.7c-1.1 1.2-1.7 2.8-1.7 4.5 0 1.8.6 3.3 1.7 4.5 1.1 1.2 2.6 1.8 4.4 1.8s3.2-.6 4.3-1.8c1.1-1.2 1.7-2.8 1.7-4.5 0-1.8-.6-3.3-1.7-4.5-1.1-1.2-2.6-1.8-4.3-1.8s-3.3.6-4.4 1.8zM111.4 21.9c0 1.5.6 2.8 1.8 3.8 1.2 1 2.5 1.5 4.1 1.5 2.5 0 4.3-1.1 5.4-3.1l3.2 2.1c-1.7 3.1-5 4.9-8.6 4.9-3 0-5.5-1-7.5-3s-3-4.5-3-7.5c0-2.9 1-5.4 2.9-7.4s4.3-3.1 7.2-3.1c3.1 0 5.5.9 7.2 2.9 1.7 1.9 2.6 4.4 2.6 7.5 0 .6 0 1.1-.1 1.4h-15.2zm.2-3.4h10.6c-.2-2.8-2.4-4.6-5.2-4.6-2.8.1-5 1.9-5.4 4.6zM141.5 15.1c-.4-.1-.8-.1-1.3-.1-3.4 0-5.2 2-5.2 5.5v10.2h-4.5V10.6h4.4v3.2c1.2-2.3 3.1-3.4 5.5-3.4.5 0 .8 0 1.1.1v4.6z"/><g><path class="st1" d="M151.4 28c-2-2-3-4.5-3-7.5 0-2.8 1-5.3 3-7.4 2-2.1 4.5-3.1 7.5-3.1 4.5 0 7.8 2.5 9 6l-3.8 1.7c-.9-2.5-2.6-3.7-5.2-3.7-1.7 0-3.1.6-4.2 1.8-1.1 1.2-1.7 2.7-1.7 4.5 0 1.9.6 3.4 1.7 4.6 1.1 1.2 2.6 1.8 4.3 1.8 2.5 0 4.3-1.2 5.2-3.7l3.9 1.7c-.6 1.6-1.7 3.1-3.2 4.3-1.5 1.2-3.5 1.8-6 1.8-3 .2-5.5-.8-7.5-2.8zM185 30.7V19.4c0-3-1.5-5-4.4-5-2.8 0-4.6 2-4.6 5.1v11.2h-4.5V0h4.5v13.1c1.5-2 3.6-3 6-3 4.9 0 7.5 3.3 7.5 8.1v12.4H185zM206 15.1c-.4-.1-.8-.1-1.3-.1-3.4 0-5.2 2-5.2 5.5v10.2H195V10.6h4.4v3.2c1.2-2.3 3.1-3.4 5.5-3.4.5 0 .8 0 1.1.1v4.6zM208.9 2c1.2-1.2 3-1.2 4.1 0 1.2 1.2 1.2 3 0 4.1s-3 1.2-4.1 0c-1.1-1.2-1.1-3 0-4.1zm4.4 28.7h-4.5V10.6h4.5v20.1zM216.5 26l3.5-2c1.1 2.1 2.7 3.2 4.8 3.2 1.7 0 3.2-.9 3.2-2.2 0-1.2-1.4-2.1-4.1-2.6-2.2-.5-3.9-1.2-5-2.4-.9-1-1.4-2.2-1.4-3.7 0-1.8.7-3.3 2.2-4.4 1.5-1.2 3.2-1.7 5.1-1.7 3.6 0 6.1 1.5 7.5 4.5l-3.5 2c-.9-1.8-2.3-2.7-4.2-2.7-1.4 0-2.8.9-2.8 2 0 1.3 1.1 2 3.7 2.6 4.6 1 7 3.2 7 6.3 0 1.8-.7 3.4-2.1 4.5-1.4 1.2-3.2 1.7-5.5 1.7-4-.1-6.8-1.8-8.4-5.1zM242.6 14.6v8.9c0 2.4 1.2 3.4 3.5 3.4.5 0 .9 0 1.4-.2v3.8c-.7.3-1.5.4-2.4.4-4.4 0-7-2.3-7-6.7v-9.6h-3.7v-4h3.7V4.3h4.5v6.2h4.9v4h-4.9zM251.9 2c1.2-1.2 3-1.2 4.1 0 1.2 1.2 1.2 3 0 4.1-1.2 1.2-3 1.2-4.1 0-1.2-1.2-1.2-3 0-4.1zm4.3 28.7h-4.5V10.6h4.5v20.1zM268.7 14c-2.3 0-4 1.1-5 3.2l-3.4-2c1.6-3.4 4.4-5.1 8.6-5.1 3.8 0 6.3 1.4 7.5 4.1.5 1 .7 2.2.7 3.6v12.8h-4.4v-2.8c-1.2 2.1-3.2 3.1-5.9 3.1-2 0-3.6-.6-4.9-1.7-1.3-1.1-1.9-2.5-1.9-4.3v-.2c0-4.7 4.8-6.1 8.4-6.1h2.5c1.2 0 1.9-.6 1.9-1.7-.1-1.5-1.6-2.9-4.1-2.9zm3.9 7.9h-4.3c-.9 0-1.8.3-2.7.8-.8.5-1.2 1.2-1.2 2 0 1.7 1.3 2.8 3.2 2.8 3.1 0 5-1.9 5-4.9v-.7zM295.5 30.7V19.4c0-3-1.5-5-4.4-5-2.8 0-4.6 2-4.6 5.1v11.2H282V10.6h4.4v2.7c1.5-2.1 3.6-3.1 6.1-3.1 4.9 0 7.5 3.3 7.5 8.1v12.4h-4.5z"/></g><g><path class="st0" d="M64.5 43.4c-.2 0-.4-.1-.6-.1-.9 0-1.4.5-1.4 1.5v1h2v1.5h-2v6h-1.7v-6h-1.4v-1.5h1.4v-1c0-1.8 1.1-2.9 2.9-2.9.3 0 .5 0 .8.1v1.4zM70.2 47.4h-.5c-1.3 0-1.9.7-1.9 2v3.8h-1.7v-7.4h1.6V47c.5-.8 1.1-1.3 2-1.3h.4v1.7zM78 46.7c.8.7 1.1 1.6 1.1 2.7s-.4 2-1.1 2.8c-.8.7-1.7 1.1-2.8 1.1-1.1 0-2-.4-2.8-1.1-.8-.7-1.1-1.7-1.1-2.7 0-1.1.4-2 1.2-2.7.8-.7 1.7-1.1 2.8-1.1 1.1-.1 2 .3 2.7 1zm-4.9 2.7c0 .7.2 1.2.6 1.7.4.5 1 .7 1.6.7.7 0 1.2-.2 1.6-.7.4-.5.6-1 .6-1.7s-.2-1.2-.6-1.7c-.4-.5-.9-.7-1.6-.7s-1.2.2-1.6.7c-.4.5-.6 1.1-.6 1.7zM86.3 53.2V49c0-1.1-.5-1.8-1.6-1.8-1 0-1.7.7-1.7 1.9v4.1h-1.7v-7.4h1.6v1c.6-.8 1.3-1.2 2.3-1.2 1.8 0 2.8 1.2 2.8 3v4.6h-1.7zM92.5 47.2v3.3c0 .9.4 1.2 1.3 1.2.2 0 .3 0 .5-.1V53c-.3.1-.6.2-.9.2-1.6 0-2.6-.9-2.6-2.5v-3.5h-1.4v-1.5h1.4v-2.3h1.7v2.3h1.8v1.5h-1.8zM95.7 47.8h4.5v1.7h-4.5v-1.7zM104.1 50c0 .6.2 1 .7 1.4.4.4.9.5 1.5.5.9 0 1.6-.4 2-1.2l1.2.8c-.6 1.2-1.8 1.8-3.2 1.8-1.1 0-2-.4-2.8-1.1-.7-.7-1.1-1.7-1.1-2.8 0-1.1.4-2 1.1-2.7.7-.7 1.6-1.1 2.7-1.1s2 .3 2.7 1.1c.6.7 1 1.6 1 2.8v.5h-5.8zm.1-1.3h3.9c-.1-1-.9-1.7-1.9-1.7-1.1 0-1.9.7-2 1.7zM116.8 53.2V49c0-1.1-.5-1.8-1.6-1.8-1 0-1.7.7-1.7 1.9v4.1h-1.7v-7.4h1.6v1c.6-.8 1.3-1.2 2.3-1.2 1.8 0 2.8 1.2 2.8 3v4.6h-1.7zM121.5 46.8c.7-.8 1.6-1.2 2.7-1.2.4 0 .8.1 1.3.3.5.2.8.5 1.1.9v-5h1.7v11.3h-1.6V52c-.3.4-.6.8-1.2 1-.5.2-.9.3-1.3.3-1 0-1.9-.4-2.6-1.1-.7-.8-1-1.7-1-2.7-.1-1 .2-1.9.9-2.7zm1.3 1c-.4.5-.6 1-.6 1.7s.2 1.2.6 1.7c.4.4 1 .7 1.6.7.7 0 1.2-.2 1.6-.7.4-.5.6-1 .6-1.7s-.2-1.2-.6-1.7c-.4-.5-.9-.7-1.6-.7-.6 0-1.2.2-1.6.7zM134.7 46.8c.7-.8 1.6-1.2 2.7-1.2.4 0 .8.1 1.3.3.5.2.8.5 1.1.9v-5h1.7v11.3h-1.6V52c-.3.4-.6.8-1.2 1-.5.2-.9.3-1.3.3-1 0-1.9-.4-2.6-1.1-.7-.8-1-1.7-1-2.7-.1-1 .2-1.9.9-2.7zm1.3 1c-.4.5-.6 1-.6 1.7s.2 1.2.6 1.7c.4.4 1 .7 1.6.7s1.2-.2 1.6-.7c.4-.5.6-1 .6-1.7s-.2-1.2-.6-1.7c-.4-.5-.9-.7-1.6-.7s-1.2.2-1.6.7zM145.2 50c0 .6.2 1 .7 1.4.4.4.9.5 1.5.5.9 0 1.6-.4 2-1.2l1.2.8c-.6 1.2-1.8 1.8-3.2 1.8-1.1 0-2-.4-2.8-1.1-.7-.7-1.1-1.7-1.1-2.8 0-1.1.4-2 1.1-2.7.7-.7 1.6-1.1 2.7-1.1s2 .3 2.7 1.1c.6.7 1 1.6 1 2.8v.5h-5.8zm.1-1.3h3.9c-.1-1-.9-1.7-1.9-1.7-1 0-1.8.7-2 1.7zM153.6 45.8l2.2 5.5 2.2-5.5h1.7l-3.1 7.4H155l-3.1-7.4h1.7zM162.3 50c0 .6.2 1 .7 1.4.4.4.9.5 1.5.5.9 0 1.6-.4 2-1.2l1.2.8c-.6 1.2-1.8 1.8-3.2 1.8-1.1 0-2-.4-2.8-1.1-.7-.7-1.1-1.7-1.1-2.8 0-1.1.4-2 1.1-2.7.7-.7 1.6-1.1 2.7-1.1s2 .3 2.7 1.1c.6.7 1 1.6 1 2.8v.5h-5.8zm.1-1.3h3.9c-.1-1-.9-1.7-1.9-1.7-1 0-1.8.7-2 1.7zM170.1 41.9h1.7v11.3h-1.7V41.9zM180.5 46.7c.8.7 1.1 1.6 1.1 2.7s-.4 2-1.1 2.8c-.8.7-1.7 1.1-2.8 1.1-1.1 0-2-.4-2.8-1.1-.8-.7-1.1-1.7-1.1-2.7 0-1.1.4-2 1.2-2.7.8-.7 1.7-1.1 2.8-1.1 1-.1 1.9.3 2.7 1zm-5 2.7c0 .7.2 1.2.6 1.7.4.5 1 .7 1.6.7s1.2-.2 1.6-.7c.4-.5.6-1 .6-1.7s-.2-1.2-.6-1.7c-.4-.5-.9-.7-1.6-.7s-1.2.2-1.6.7c-.4.5-.6 1.1-.6 1.7zM190.4 52.2c-.7.8-1.6 1.1-2.6 1.1-.4 0-.8-.1-1.3-.3-.5-.2-.8-.5-1.1-.9v4.7h-1.7v-11h1.6V47c.3-.5.7-.8 1.1-1 .5-.2.9-.3 1.3-.3 1.1 0 2 .4 2.6 1.2.7.8 1 1.7 1 2.7.2.9-.2 1.8-.9 2.6zm-5-2.7c0 .7.2 1.2.6 1.7.4.4 1 .7 1.6.7s1.2-.2 1.6-.7c.4-.5.6-1 .6-1.7s-.2-1.2-.6-1.7c-.4-.5-.9-.7-1.6-.7s-1.2.2-1.6.7c-.4.4-.6 1-.6 1.7zM194.8 50c0 .6.2 1 .7 1.4.4.4.9.5 1.5.5.9 0 1.6-.4 2-1.2l1.2.8c-.6 1.2-1.8 1.8-3.2 1.8-1.1 0-2-.4-2.8-1.1-.7-.7-1.1-1.7-1.1-2.8 0-1.1.4-2 1.1-2.7.7-.7 1.6-1.1 2.7-1.1s2 .3 2.7 1.1c.6.7 1 1.6 1 2.8v.5h-5.8zm.1-1.3h3.9c-.1-1-.9-1.7-1.9-1.7-1.1 0-1.8.7-2 1.7zM206.6 47.4h-.5c-1.3 0-1.9.7-1.9 2v3.8h-1.7v-7.4h1.6V47c.5-.8 1.1-1.3 2-1.3h.4v1.7z"/></g></svg>