<svg xmlns="http://www.w3.org/2000/svg" viewBox="0 0 44.2 48.7"><path d="M44.2 38.5c-.9 1.3-1.9 2.4-3 3.5-4.4 4.2-10.3 6.8-16.9 6.8-6.5 0-12.5-2.6-16.9-6.8-1.1-1.1-2.1-2.2-3-3.5-.9-1.2-1.6-2.5-2.3-3.9-.5-1.1-.9-2.2-1.3-3.4-.1-.3-.2-.7-.3-1-.3-1.1-.5-2.3-.6-3.5.1-.8.1-1.6.1-2.3 0-.8 0-1.5.1-2.3.1-1.2.3-2.4.6-3.5.1-.3.2-.7.3-1 .3-1.2.8-2.3 1.3-3.4l3.9 2.3c-.2.4-.3.7-.4 1.1-.4 1.1-.7 2.2-.9 3.4-.1.4-.1.8-.2 1.2-.1.7-.1 1.5-.1 2.3 0 .8 0 1.5.1 2.3 0 .4.1.8.2 1.2.1 1 .4 2.1.8 3.2.1.4.3.7.4 1.1.6 1.4 1.4 2.7 2.3 3.9.9 1.3 2 2.4 3.2 3.4 3.4 2.9 7.9 4.6 12.7 4.6 4.9 0 9.3-1.7 12.7-4.6l-5.9-3.4c-2 1.2-4.3 1.8-6.8 1.8s-4.8-.7-6.8-1.8c-1.4-.8-2.7-1.9-3.7-3.1-.5-.6-.9-1.2-1.3-1.9s-.7-1.3-1-2c-.3-.8-.5-1.6-.7-2.5-.1-.7-.2-1.5-.2-2.3 0-.8.1-1.5.2-2.3h22.6c0-.1-.1-.2-.1-.3-.4-1.5-1.2-2.8-2.3-3.9l-.3-.3c-1.2-1.1-2.6-2-4.3-2.4-.7-.2-1.5-.3-2.3-.3-.8 0-1.5.1-2.2.3-1.6.4-3.1 1.2-4.3 2.4l-.3.3-.5-.3-3.3-1.9-5.4-3.1-3.9-2.3c.9-1.3 1.9-2.4 3-3.5C11.9 2.6 17.8 0 24.4 0c6.5 0 12.5 2.6 16.9 6.8l-4.1 2.4c-3.4-2.9-7.9-4.6-12.7-4.6-4.8 0-9.3 1.7-12.7 4.6l5.9 3.4c2-1.2 4.3-1.8 6.8-1.8s4.8.7 6.8 1.8c1.4.8 2.7 1.9 3.7 3.1.5.6.9 1.2 1.3 1.9s.7 1.3 1 2c.3.8.5 1.6.7 2.5.1.7.2 1.5.2 2.3 0 .8-.1 1.5-.2 2.3H15.2c0 .1.1.2.1.3.4 1.5 1.2 2.8 2.3 3.9l.3.3c1.2 1.1 2.6 2 4.3 2.4.7.2 1.5.3 2.2.3.8 0 1.5-.1 2.3-.3 1.6-.4 3.1-1.2 4.3-2.4l.3-.3.5.3 3.3 1.9 5.4 3.1 3.7 2.3z" fill="#00d59f"/></svg>